<svg id="Layer_1" data-name="Layer 1" xmlns="http://www.w3.org/2000/svg" xmlns:xlink="http://www.w3.org/1999/xlink" viewBox="0 0 550 437.92"><defs><style>.cls-1,.cls-2{fill:none;}.cls-1{clip-rule:evenodd;}.cls-3{clip-path:url(#clip-path);}.cls-4{clip-path:url(#clip-path-2);}.cls-5{fill:#0b0b0b;}.cls-6{clip-path:url(#clip-path-3);}.cls-7{fill:#fff240;}.cls-8{clip-path:url(#clip-path-5);}.cls-9{fill:#0baeec;}.cls-10{clip-path:url(#clip-path-7);}.cls-11{fill:#ec272b;}.cls-12{clip-path:url(#clip-path-9);}</style><clipPath id="clip-path" transform="translate(-23 -9.08)"><path class="cls-1" d="M568,371.65c0,16.85-13.55,33.54-43.37,33.54-15.81,0-29.66-6.67-38.09-15l15.51-15.48a32.55,32.55,0,0,0,22.58,9.25c11.3,0,17.47-5.16,17.47-11.68,0-21.1-52.4-10.17-52.4-49.79,0-16.08,14.6-32.63,40.66-32.63,16.11,0,28.15,6.22,37,15L552,320.35c-5-5-11.9-9.26-21.08-9.26-10.24,0-15.36,6.07-15.36,11.38C515.6,339.93,568,331.43,568,371.65Zm-100.21,8.12V401a74.42,74.42,0,0,1-19.27,2.28c-21.09,0-33.58-14.12-33.58-30.36V313.75H394.31V292.5h20.63V261.38h26.35V292.5h25.29v21.25H441.29v55.4c0,8.19,4.06,12.9,14.6,12.9A35.12,35.12,0,0,0,467.79,379.77ZM378.87,333.1v68.3H352.52V336.89c0-16.69-8-24.74-21.08-24.74-14.61,0-25.6,10.93-25.6,34.61V401.4H279.49V292.12h25.6V309c4.82-11.24,17.16-19.13,33.88-19.13C362.46,289.84,378.87,306.39,378.87,333.1Zm-125-40.6V401.78H227.46V292.5ZM198.1,250V401.78H171.75V250Zm-55.56,42.5v99.41c0,27.78-22.29,50.09-56.92,50.09-20.93,0-34.79-7.74-42.92-15.78L57.76,411c5,4.85,13.7,9.71,26.65,9.71,18.07,0,31.63-11.69,31.63-28.84v-2.69c-6.6,5.07-15.57,10-32.69,10.64C59.1,400.17,29,380.23,28,345.57c0-33.39,25.93-56.41,53.32-57.06,17.11,0,28.69,4,35.62,11.69v-7.7ZM85.19,377.73a33.14,33.14,0,1,0-33.11-33.14A33.12,33.12,0,0,0,85.19,377.73Z"/></clipPath><clipPath id="clip-path-2" transform="translate(-23 -9.08)"><rect class="cls-2" width="595" height="456"/></clipPath><clipPath id="clip-path-3" transform="translate(-23 -9.08)"><polygon class="cls-2" points="257.34 45.01 297.36 103.14 365.25 102.09 325.79 158.78 348.26 226.23 283.88 203.61 230.36 245.96 230.1 174.79 174.34 134.04 238.41 113 257.34 45.01"/></clipPath><clipPath id="clip-path-5" transform="translate(-23 -9.08)"><polygon class="cls-2" points="293.69 30.81 333.79 88.92 401.38 87.92 361.81 144.64 384.76 212 320.23 189.41 266.58 231.78 266.35 160.61 210.47 119.87 274.7 98.81 293.69 30.81"/></clipPath><clipPath id="clip-path-7" transform="translate(-23 -9.08)"><polygon class="cls-2" points="270.13 55.36 310.23 113.47 377.82 112.47 338.24 169.18 361.2 236.54 296.67 213.95 243.01 256.32 242.79 185.16 186.9 144.42 251.14 123.36 270.13 55.36"/></clipPath><clipPath id="clip-path-9" transform="translate(-23 -9.08)"><polygon class="cls-2" points="282.36 45.87 322.46 103.98 390.05 102.98 350.47 159.69 373.43 227.06 308.9 204.46 255.24 246.83 255.02 175.67 199.13 134.93 263.37 113.87 282.36 45.87"/></clipPath></defs><title>logo glints black</title><g class="cls-3"><g class="cls-4"><rect class="cls-5" y="235.92" width="550" height="202"/></g></g><g class="cls-6"><g class="cls-4"><rect class="cls-7" x="171.77" y="38.65" width="203.57" height="203.73" transform="translate(-42.44 38) rotate(-9.5)"/></g></g><g class="cls-8"><g class="cls-4"><rect class="cls-9" x="207.9" y="24.48" width="203.57" height="203.73" transform="translate(-39.61 43.76) rotate(-9.5)"/></g></g><g class="cls-10"><g class="cls-4"><rect class="cls-11" x="184.33" y="49.03" width="203.57" height="203.73" transform="translate(-43.98 40.21) rotate(-9.5)"/></g></g><g class="cls-12"><g class="cls-4"><rect class="cls-5" x="196.56" y="39.54" width="203.57" height="203.73" transform="translate(-42.25 42.1) rotate(-9.5)"/></g></g></svg>